<svg width="172" height="53" viewBox="0 0 172 53" fill="none" xmlns="http://www.w3.org/2000/svg">
<g style="mix-blend-mode:darken">
<rect y="26.0176" width="36.7944" height="36.7944" rx="12" transform="rotate(-45 0 26.0176)" fill="#54DAE8"/>
</g>
<g style="mix-blend-mode:darken">
<circle cx="41.1123" cy="25.9824" r="21" fill="#E045E3"/>
</g>
<path d="M77.7045 35H71.517V17.5455H77.7557C79.5114 17.5455 81.0227 17.8949 82.2898 18.5938C83.5568 19.2869 84.5313 20.2841 85.2131 21.5852C85.9006 22.8864 86.2443 24.4432 86.2443 26.2557C86.2443 28.0739 85.9006 29.6364 85.2131 30.9432C84.5313 32.25 83.5511 33.2528 82.2727 33.9517C81 34.6506 79.4773 35 77.7045 35ZM75.2074 31.8381H77.5511C78.642 31.8381 79.5597 31.6449 80.304 31.2585C81.054 30.8665 81.6165 30.2614 81.9915 29.4432C82.3722 28.6193 82.5625 27.5568 82.5625 26.2557C82.5625 24.9659 82.3722 23.9119 81.9915 23.0938C81.6165 22.2756 81.0568 21.6733 80.3125 21.2869C79.5682 20.9006 78.6506 20.7074 77.5597 20.7074H75.2074V31.8381ZM94.6357 35.2557C93.2891 35.2557 92.13 34.983 91.1584 34.4375C90.1925 33.8864 89.4482 33.108 88.9255 32.1023C88.4028 31.0909 88.1414 29.8949 88.1414 28.5142C88.1414 27.1676 88.4028 25.9858 88.9255 24.9688C89.4482 23.9517 90.184 23.1591 91.1329 22.5909C92.0874 22.0227 93.2067 21.7386 94.4908 21.7386C95.3545 21.7386 96.1584 21.8778 96.9028 22.1562C97.6528 22.429 98.3062 22.8409 98.863 23.392C99.4255 23.9432 99.863 24.6364 100.175 25.4716C100.488 26.3011 100.644 27.2727 100.644 28.3864V29.3835H89.5903V27.1335H97.2266C97.2266 26.6108 97.113 26.1477 96.8857 25.7443C96.6584 25.3409 96.3431 25.0256 95.9397 24.7983C95.542 24.5653 95.0789 24.4489 94.5505 24.4489C93.9993 24.4489 93.5107 24.5767 93.0846 24.8324C92.6641 25.0824 92.3346 25.4205 92.0959 25.8466C91.8573 26.267 91.7351 26.7358 91.7295 27.2528V29.392C91.7295 30.0398 91.8488 30.5994 92.0874 31.071C92.3317 31.5426 92.6755 31.9062 93.1187 32.1619C93.5618 32.4176 94.0874 32.5455 94.6954 32.5455C95.0988 32.5455 95.4681 32.4886 95.8033 32.375C96.1386 32.2614 96.4255 32.0909 96.6641 31.8636C96.9028 31.6364 97.0846 31.358 97.2096 31.0284L100.568 31.25C100.397 32.0568 100.048 32.7614 99.5192 33.3636C98.9965 33.9602 98.3204 34.4261 97.4908 34.7614C96.667 35.0909 95.7153 35.2557 94.6357 35.2557ZM114.627 21.9091L110.05 35H105.959L101.382 21.9091H105.217L107.936 31.2756H108.073L110.783 21.9091H114.627ZM116.313 35V17.5455H127.869V20.5881H120.003V24.7472H127.102V27.7898H120.003V35H116.313ZM133.674 17.5455V35H130.044V17.5455H133.674ZM142.257 35.2557C140.934 35.2557 139.789 34.9744 138.823 34.4119C137.863 33.8437 137.121 33.054 136.598 32.0426C136.076 31.0256 135.814 29.8466 135.814 28.5057C135.814 27.1534 136.076 25.9716 136.598 24.9602C137.121 23.9432 137.863 23.1534 138.823 22.5909C139.789 22.0227 140.934 21.7386 142.257 21.7386C143.581 21.7386 144.723 22.0227 145.684 22.5909C146.649 23.1534 147.394 23.9432 147.916 24.9602C148.439 25.9716 148.701 27.1534 148.701 28.5057C148.701 29.8466 148.439 31.0256 147.916 32.0426C147.394 33.054 146.649 33.8437 145.684 34.4119C144.723 34.9744 143.581 35.2557 142.257 35.2557ZM142.274 32.4432C142.877 32.4432 143.38 32.2727 143.783 31.9318C144.186 31.5852 144.49 31.1136 144.695 30.517C144.905 29.9205 145.01 29.2415 145.01 28.4801C145.01 27.7188 144.905 27.0398 144.695 26.4432C144.49 25.8466 144.186 25.375 143.783 25.0284C143.38 24.6818 142.877 24.5085 142.274 24.5085C141.666 24.5085 141.155 24.6818 140.74 25.0284C140.331 25.375 140.022 25.8466 139.811 26.4432C139.607 27.0398 139.505 27.7188 139.505 28.4801C139.505 29.2415 139.607 29.9205 139.811 30.517C140.022 31.1136 140.331 31.5852 140.74 31.9318C141.155 32.2727 141.666 32.4432 142.274 32.4432ZM153.076 35L149.513 21.9091H153.186L155.215 30.7045H155.334L157.448 21.9091H161.053L163.201 30.6534H163.311L165.306 21.9091H168.971L165.417 35H161.573L159.323 26.767H159.161L156.911 35H153.076Z" fill="black"/>
</svg>
